<?xml version="1.0" encoding="utf-8"?>
<!-- Generator: Adobe Illustrator 18.1.1, SVG Export Plug-In . SVG Version: 6.00 Build 0)  -->
<svg version="1.1" id="Layer_1" xmlns="http://www.w3.org/2000/svg" xmlns:xlink="http://www.w3.org/1999/xlink" x="0px" y="0px"
	 viewBox="-255 129 512 512" enable-background="new -255 129 512 512" xml:space="preserve">
<path id="bug-3-icon" fill="#F2EEEB" d="M-82.6,203.3c0-13.4,10.9-24.3,24.3-24.3c16,0,27.6,15.2,23.4,30.6
	c-1.6,5.8-0.7,12,2.3,17.2c6.8,11.5,18.4,18.5,33.6,18.6c15-0.1,26.7-7,33.6-18.6c3.1-5.2,3.9-11.4,2.3-17.2
	c-4.2-15.4,7.4-30.6,23.4-30.6c13.4,0,24.3,10.9,24.3,24.3c0,11.6-8.2,21.3-19,23.7c-5.5,1.2-10.2,4.6-13,9.5
	c-11,18.6,5,34.9,18,51.5c-39.8,20.8-99.5,20.8-139.3,0c13.2-16.8,29.1-32.8,18-51.5c-2.9-4.8-7.6-8.2-13-9.5
	C-74.5,224.6-82.6,214.9-82.6,203.3z M146.4,445.6h40.5c9.9,0,17.9-8,17.9-17.9c0-9.9-8-17.9-17.9-17.9h-40.8
	c-9.8,0-19.3-6.8-20.8-18.2c-1.6-11.7,4.9-19.8,13-23l37.9-14.9c9.2-3.6,13.7-14,10.1-23.2c-3.6-9.2-14-13.7-23.2-10.1l-39,15.4
	c-5.6,2.2-12.5,0.6-15.7-6.9c-3.8-8.8-8.1-17.1-12.9-24.6c-29.8,13.4-56,21.1-81.6,23V591c43.1-8.9,73.8-36.4,90.3-64.2
	c4.4-7.4,10.7-8.9,16.4-6.3l43.5,19.7c9,4.1,19.6,0.1,23.7-8.9c4.1-9,0.1-19.6-8.9-23.7L137.6,489c-8.4-3.8-14.7-12.7-13-23.9
	C126.9,451.3,136.9,445.6,146.4,445.6z M-11.8,327.3c-25.6-1.9-51.8-9.6-81.6-23c-4.7,7.3-8.9,15.4-12.6,24c-3.9,8.9-11,9.5-16,7.5
	l-39-15.4c-9.2-3.6-19.6,0.9-23.2,10.1c-3.6,9.2,0.9,19.6,10.1,23.2l37.9,14.9c8.4,3.3,14.5,12,13.1,22c-1.8,13.1-11.6,19.2-21,19.2
	h-40.8c-9.9,0-17.9,8-17.9,17.9s8,17.9,17.9,17.9h40.5c9.7,0,19.7,6.4,21.5,18.2c1.9,12.6-3.9,21.2-12.8,25.2l-41.1,18.6
	c-9,4.1-13,14.7-8.9,23.7c4.1,9,14.7,13,23.7,8.9l43.5-19.7c5.2-2.4,11.7-1.8,15.3,4.5c16.2,28.3,47.4,56.9,91.4,66L-11.8,327.3
	L-11.8,327.3z"/>
</svg>
