<?xml version="1.0" encoding="utf-8"?>
<!-- Generator: Adobe Illustrator 18.1.1, SVG Export Plug-In . SVG Version: 6.00 Build 0)  -->
<svg version="1.1" id="Layer_1" xmlns="http://www.w3.org/2000/svg" xmlns:xlink="http://www.w3.org/1999/xlink" x="0px" y="0px"
	 viewBox="-255 129 512 512" enable-background="new -255 129 512 512" xml:space="preserve">
<path id="loading-10-icon" fill="#362E49" d="M48.5,222c0,22.1-17.9,40-40,40s-40-17.9-40-40s17.9-40,40-40S48.5,199.9,48.5,222z
	 M8.5,518c-19.3,0-35,15.7-35,35s15.7,35,35,35s35-15.7,35-35S27.8,518,8.5,518z M174,412.5c-13.8,0-25-11.2-25-25s11.2-25,25-25
	s25,11.2,25,25S187.8,412.5,174,412.5z M-117,387.5c0-22.1-17.9-40-40-40s-40,17.9-40,40s17.9,40,40,40S-117,409.6-117,387.5z
	 M-80.3,242.2c15.6,15.6,15.6,40.9,0,56.6c-15.6,15.6-40.9,15.6-56.6,0c-15.6-15.6-15.6-40.9,0-56.6
	C-121.2,226.6-95.9,226.6-80.3,242.2z M104.3,483.3c-11.7,11.7-11.7,30.7,0,42.4s30.7,11.7,42.4,0c11.7-11.7,11.7-30.7,0-42.4
	S116,471.6,104.3,483.3z M139.7,284.6c-7.8,7.8-20.5,7.8-28.3,0c-7.8-7.8-7.8-20.5,0-28.3c7.8-7.8,20.5-7.8,28.3,0
	C147.5,264.1,147.5,276.8,139.7,284.6z M-80.3,476.3c-15.6-15.6-40.9-15.6-56.6,0c-15.6,15.6-15.6,40.9,0,56.6
	c15.6,15.6,40.9,15.6,56.6,0C-64.6,517.2-64.6,491.9-80.3,476.3z"/>
</svg>
