<?xml version="1.0" encoding="utf-8"?>
<!-- Generator: Adobe Illustrator 18.1.1, SVG Export Plug-In . SVG Version: 6.00 Build 0)  -->
<svg version="1.1" id="Layer_1" xmlns="http://www.w3.org/2000/svg" xmlns:xlink="http://www.w3.org/1999/xlink" x="0px" y="0px"
	 viewBox="0 0 45 27.7" enable-background="new 0 0 45 27.7" xml:space="preserve">
<g>
	<g>
		<g>
			<g>
				<path fill="#F2EEEB" d="M43.1,17.8c-2.3,0.6-13,3.3-16.6,5.3c-0.1,0.1-0.3,0.1-0.3,0c-0.1-0.5-0.5-1.9-0.2-2.4
					c0,0-5.3,1.4-8.9,3.3c-0.1,0.1-0.4,0.1-0.4,0c-0.1-0.3-0.3-1-0.1-1.8c0,0-5.6,1.7-9,3.5c-0.1,0.1-0.3,0-0.2,0
					c0.9-1.2,7.2-4.6,14-6.9c0.2-0.1,0.4,0,0.4,0.1c0,0.2-1.1,1-1,1.4c0,0,6.1-2.2,9.8-2.9c0.2,0,0.3,0,0.3,0.1
					c-0.2,0.4-1.2,1.8-1.1,2.5C29.9,19.8,38.5,18,43.1,17.8C43.2,17.7,43.2,17.7,43.1,17.8z"/>
			</g>
		</g>
	</g>
	<g>
		<path fill="#F2EEEB" d="M1.2,26.7c0.1-0.2,0.2-0.2,0.3-0.4c0-6.3,0-12.6,0-18.8c0.3,0,0.6-0.3,0.6-0.7c0.6,0,0.8,0,1.4,0
			c0,5.9,0,11.7,0,17.6C5.6,24.8,20,19.1,21.2,19c0.1-0.2-4.6,2.2-4.6,3.1C14.6,22.3,6.5,27.3,1.2,26.7z"/>
	</g>
	<g>
		<path fill="#F2EEEB" d="M9.3,6c0,0.3,0.2,0.5,0.5,0.4c0,1.4,0,2.1,0,3.5c-0.6,0.7-1,1.1-1.6,1.8c0,2.8,0,7.7,0,10.4
			c0.1,0.1,0.2,0.1,0.3,0.2c-0.6,0.3-1.6,0.6-2.3,0.7c0.1-0.1,0.3-0.6,0.4-0.7c0-2.8,0-7.6,0-10.4c-0.7-0.6-1-0.9-1.6-1.5
			c0-1.4,0-2.1,0-3.5c0.3,0,0.5-0.3,0.5-0.5c0.5,0,0.7-0.1,1.2-0.1c0,1.3,0,2,0,3.3C6.9,10,7,10.1,7.3,10.4C7.7,10,7.8,9.9,8.2,9.5
			c0-1.3,0-2,0-3.3C8.6,6.1,8.8,6.1,9.3,6z"/>
	</g>
	<g>
		<path fill="#F2EEEB" d="M10.6,7.5c0-0.5,0-0.7,0-1.2c0.3,0,0.5-0.3,0.5-0.6c1.3-0.2,2.6-0.4,3.9-0.6c0,0.3,0.2,0.5,0.5,0.4
			c0,0.5,0,0.7,0,1.2c-0.7,0.1-1,0.2-1.6,0.3c0,4.1,0,9.5,0,13.7c0.1,0.1,0.2,0.1,0.3,0.2c-0.6,0.3-1.5,0.6-2.2,0.7
			c0.1-0.1,0.2-0.6,0.3-0.7c0-4.1,0-9.5,0-13.7C11.6,7.4,11.2,7.4,10.6,7.5z"/>
	</g>
	<g>
		<path fill="#F2EEEB" d="M21.5,17.8c0.1,0.1,0.2,0.1,0.3,0.2c-1.8,0.3-3.7,1.6-5.5,1.9c0.1-0.1,0.3-1.1,0.4-1.2c0-1.7,0-3.1,0-4.8
			c-0.1,0.1-0.2,0.2-0.3,0.3c0-0.9,0-1.4,0-2.3c0.1-0.1,0.2-0.2,0.3-0.3c0-2,0-4.1,0-6.1c0.3,0,0.5-0.3,0.5-0.6
			c1.6-0.3,2.4-0.4,3.9-0.7c0,0.3,0.2,0.4,0.5,0.4c0,0.5,0,0.7,0,1.2c-0.7,0.8-1,1.2-1.7,2c0-0.7,0-1,0-1.7c-0.6,0.1-1,0.2-1.6,0.3
			c0,1.3,0,2,0,3.3c0.4-0.4,0.6-0.7,0.9-1.1c0,0.9,0,1.4,0,2.3c-0.4,0.5-0.6,0.7-0.9,1.1c0,1.8,0,3.5,0,5.3c0.6-0.1,1-0.2,1.6-0.3
			c0-1.4,0-2.1,0-3.5c0.7-0.8,1-1.2,1.6-2C21.5,13.6,21.5,15.6,21.5,17.8z"/>
	</g>
	<g>
		<path fill="#F2EEEB" d="M28,17.4c-0.6,0.1-1.5,0.5-2.3,0.7c0.1-0.1,0.2-0.5,0.3-0.6c0-4.1,0-8.5,0-12.6c-0.6,0.1-1,0.2-1.6,0.3
			c0,4.1,0,8.9,0,13c0.1,0.1,0.2,0.1,0.3,0.2c-0.7,0.2-1.4,0.4-2.2,0.7c0.1-0.1,0.2-0.5,0.3-0.7c0-4.5,0-9.7,0-14.2
			c0.3,0,0.5-0.3,0.5-0.6c1.3-0.2,2.6-0.5,3.9-0.7c0,0.3,0.2,0.5,0.5,0.4c0,4.5,0,9.2,0,13.7C27.8,17.2,27.9,17.3,28,17.4z"/>
	</g>
	<g>
		<path fill="#F2EEEB" d="M29.5,2.6c0.3,0,0.4-0.1,0.7-0.1c0,0.3,0.2,0.5,0.5,0.4c0,4.5,0,9,0,13.5c0.1,0.1,0.2,0.2,0.3,0.3
			c-0.7,0.1-1.5,0.4-2.2,0.5c0.1-0.1,0.2-0.2,0.3-0.3c0-4.5,0-9.2,0-13.7C29.3,3.1,29.5,2.9,29.5,2.6z"/>
	</g>
	<g>
		<path fill="#F2EEEB" d="M37.2,17.9c-0.7,0.1-1.5,0.2-2.2,0.3c0.1-0.1,0.2-0.3,0.3-0.5c0-4.1,0-10.1,0-14.3c-0.6,0.1-1,0.1-1.6,0.2
			c0,4.1,0,10.1,0,14.3c0.1,0.1,0.2,0.4,0.3,0.5c-0.7,0.1-1.5,0.3-2.2,0.4c0.1-0.1,0.2-0.2,0.3-0.3c0-4.5,0-11.2,0-15.7
			c0.3,0,0.5-0.3,0.5-0.6c1.3-0.2,2.6-0.3,3.9-0.5c0,0.3,0.2,0.5,0.5,0.4c0,4.5,0,10.9,0,15.4C37,17.7,37.1,17.8,37.2,17.9z"/>
	</g>
	<g>
		<path fill="#F2EEEB" d="M43.4,7.7c-0.1,0.1-0.2,0.2-0.3,0.3c0,2.4,0,6.3,0,8.7c0.1,0.1,0.2,0.4,0.3,0.5c-1.8,0-3.9,0.4-5.7,0.6
			c0.1-0.1,0.2-0.3,0.3-0.4c0-4.5,0.1-10.9,0.1-15.4c0.3,0,0.5-0.2,0.5-0.5c1.6-0.1,2.4-0.1,3.9-0.2c0,0.3,0.2,0.5,0.5,0.5
			c0,0.5,0,0.7,0,1.2c-0.7,0.7-1,1-1.7,1.7c0-0.7,0-1,0-1.7c-0.6,0-1,0-1.6,0.1c0,3.6,0,8.7,0,12.3c0.6,0,1,0,1.6-0.1
			c0-1.7,0-4,0-5.7c-0.4,0.4-0.6,0.6-0.9,1c0-0.9,0-1.4,0-2.3c1-1,1.9-2,2.9-2.9C43.4,6.3,43.4,6.8,43.4,7.7z"/>
	</g>
</g>
</svg>
