<?xml version="1.0" encoding="utf-8"?>
<!-- Generator: Adobe Illustrator 18.1.1, SVG Export Plug-In . SVG Version: 6.00 Build 0)  -->
<svg version="1.1" id="Layer_1" xmlns="http://www.w3.org/2000/svg" xmlns:xlink="http://www.w3.org/1999/xlink" x="0px" y="0px"
	 viewBox="0 0 6.5 8.4" enable-background="new 0 0 6.5 8.4" xml:space="preserve">
<g>
	<g>
		<path fill="#362D48" d="M1,1c0.3,0.4,2,2.3,3.1,2.8c0,0,0,0.1,0,0.1C3.9,4,3.2,4.3,3,4.3c0,0,0.9,0.9,1.9,1.4c0,0,0,0.1,0,0.1
			C4.7,5.8,4.4,6,3.9,6.1c0,0,1,0.9,2,1.4c0,0,0,0.1,0,0.1C5.3,7.4,3.6,7,2.4,5.8c0,0,0-0.1,0-0.1c0.1,0,0.3-0.1,0.5-0.2
			c0,0-1-0.9-1.5-1.6c0,0,0-0.1,0-0.1c0.2,0,0.7-0.1,1-0.2C2.4,3.6,1.3,2,1,1C1,1,1,1,1,1z"/>
	</g>
</g>
</svg>
